<svg xmlns="http://www.w3.org/2000/svg" version="1.1" xmlns:xlink="http://www.w3.org/1999/xlink" viewBox="0 0 200 200" width="200" height="200"><metadata><rdf:RDF xmlns:rdf="http://www.w3.org/1999/02/22-rdf-syntax-ns#" xmlns:dc="http://purl.org/dc/elements/1.1/"><rdf:Description><dc:creator>RealFaviconGenerator</dc:creator><dc:source>https://realfavicongenerator.net</dc:source></rdf:Description></rdf:RDF></metadata><rect width="200" height="200" fill="url('#gradient')"></rect><defs><linearGradient id="gradient" gradientTransform="rotate(45 0.5 0.5)"><stop offset="0%" stop-color="#2a50e7"></stop><stop offset="100%" stop-color="#ededde"></stop></linearGradient></defs><g><g fill="#1c1169" transform="matrix(4.040060698027314,0,0,4.040060698027314,17.662705063313396,128.70900486785473)" stroke="#0e5278" stroke-width="0.6"><path d="M12.95-14.22L12.95 0L9.54 0L4.50-8.85L4.50 0L1.07 0L1.07-14.22L4.50-14.22L9.53-5.37L9.53-14.22L12.95-14.22ZM27.16-7.47L27.16-6.82Q27.16-4.74 26.39-3.13Q25.62-1.53 24.19-0.67Q22.77 0.20 20.96 0.20Q19.14 0.20 17.73-0.64Q16.33-1.47 15.54-3.03Q14.76-4.58 14.72-6.59L14.72-6.59L14.72-7.39Q14.72-9.48 15.48-11.08Q16.25-12.68 17.68-13.54Q19.11-14.41 20.94-14.41L20.94-14.41Q22.74-14.41 24.16-13.55Q25.58-12.70 26.36-11.11Q27.15-9.52 27.16-7.47L27.16-7.47ZM23.67-6.76L23.67-7.41Q23.67-9.53 22.96-10.63Q22.26-11.73 20.94-11.73L20.94-11.73Q18.36-11.73 18.21-7.86L18.21-7.86L18.20-6.82Q18.20-4.73 18.90-3.60Q19.59-2.48 20.96-2.48L20.96-2.48Q22.26-2.48 22.96-3.58Q23.66-4.69 23.67-6.76L23.67-6.76ZM36.26-3.78L36.26-3.78Q36.26-4.53 35.73-4.95Q35.20-5.37 33.86-5.82Q32.52-6.27 31.67-6.69L31.67-6.69Q28.91-8.05 28.91-10.42L28.91-10.42Q28.91-11.60 29.59-12.50Q30.28-13.41 31.54-13.91Q32.80-14.41 34.38-14.41L34.38-14.41Q35.91-14.41 37.12-13.87Q38.34-13.32 39.01-12.31Q39.69-11.30 39.69-10L39.69-10L36.27-10Q36.27-10.87 35.74-11.35Q35.21-11.83 34.30-11.83L34.30-11.83Q33.38-11.83 32.85-11.42Q32.31-11.02 32.31-10.39L32.31-10.39Q32.31-9.84 32.90-9.40Q33.49-8.96 34.96-8.48Q36.44-8.01 37.38-7.46L37.38-7.46Q39.69-6.13 39.69-3.80L39.69-3.80Q39.69-1.93 38.28-0.87Q36.88 0.20 34.42 0.20L34.42 0.20Q32.70 0.20 31.29-0.42Q29.89-1.04 29.18-2.12Q28.48-3.20 28.48-4.61L28.48-4.61L31.91-4.61Q31.91-3.47 32.50-2.92Q33.10-2.38 34.42-2.38L34.42-2.38Q35.27-2.38 35.77-2.75Q36.26-3.12 36.26-3.78Z"></path></g></g></svg>